<?xml version="1.0" standalone="no"?><!DOCTYPE svg PUBLIC "-//W3C//DTD SVG 1.1//EN" "http://www.w3.org/Graphics/SVG/1.1/DTD/svg11.dtd"><svg t="1742226272461" class="icon" viewBox="0 0 1024 1024" version="1.1" xmlns="http://www.w3.org/2000/svg" p-id="4324" xmlns:xlink="http://www.w3.org/1999/xlink" width="200" height="200"><path d="M519.498535 31.093927c-266.747901 0-482.905682 216.157782-482.905682 482.905682s216.157782 482.905682 482.905682 482.905683 482.905682-216.157782 482.905683-482.905683-216.157782-482.905682-482.905683-482.905682m0 958.012888c-262.34876 0-475.107206-212.658465-475.107205-475.107206S257.149775 38.892404 519.498535 38.892404s475.107206 212.658465 475.107206 475.107205-212.658465 475.107206-475.107206 475.107206" fill="#016766" p-id="4325"></path><path d="M539.794571 167.767233l2.599493 6.798672c177.165397 11.797696 317.33802 159.168912 317.33802 339.333724 0 187.863308-152.27026 340.133568-340.133568 340.133568-187.863308 0-340.133568-152.27026-340.133568-340.133568 0-179.76489 139.372779-326.836165 315.938294-339.333724l2.499511-6.798672c-181.464558 11.197813-325.136497 161.868385-325.136496 346.132396 0 191.562585 155.269674 346.832259 346.832259 346.832259 191.562585 0 346.832259-155.269674 346.832259-346.832259-0.09998-184.663933-144.571763-335.634446-326.636204-346.132396" fill="#016766" p-id="4326"></path><path d="M519.498535 31.093927c-266.747901 0-482.905682 216.157782-482.905682 482.905682s216.157782 482.905682 482.905682 482.905683 482.905682-216.157782 482.905683-482.905683-216.157782-482.905682-482.905683-482.905682m0 958.012888c-262.34876 0-475.107206-212.658465-475.107205-475.107206S257.149775 38.892404 519.498535 38.892404s475.107206 212.658465 475.107206 475.107205-212.658465 475.107206-475.107206 475.107206" fill="#016766" p-id="4327"></path><path d="M518.498731 111.978129s-25.29506 149.470806-117.577036 357.930092h237.553603c-45.491115-100.880297-93.881664-227.955477-119.976567-357.930092m2.09959 320.637376c-13.597344 0-24.695177-10.997852-24.695177-24.695177 0-13.597344 10.997852-24.695177 24.695177-24.695177 13.597344 0 24.695177 10.997852 24.695176 24.695177 0 13.597344-11.097832 24.695177-24.695176 24.695177M520.39836 580.386643l52.589728 100.480375H747.853935s-45.691076-74.08553-97.880883-185.963679h-85.183362l-44.39133 82.283929-44.39133-82.283929h-86.383128C362.929115 553.391916 330.935364 615.979691 292.942785 680.867018h174.965827l52.489748-100.480375zM602.98223 734.15661c8.698301 1.499707 12.897481 3.499317 12.69752 6.198789-0.699863 4.099199-7.598516 6.29877-20.795938 6.398751-11.597735-0.199961-17.596563-1.999609-18.096466-5.498926 0.199961-2.299551 4.599102-4.29916 13.097442-5.798868-7.098614-1.199766-10.797891-3.099395-10.997852-5.698887 0.899824-3.799258 6.898653-5.798867 18.096466-6.198789 9.998047 0.299941 15.396993 2.09959 16.096856 5.198985-0.09998 2.299551-3.399336 4.19918-10.098028 5.398945m-19.796134 6.698692c0.399922 3.299356 4.499121 4.899043 12.097638 4.999023 8.49834-0.199961 12.897481-1.599688 13.397383-4.39914 0.199961-2.599492-5.099004-4.399141-16.096856-5.498926-5.998828 1.099785-9.198203 2.699473-9.398165 4.899043m1.99961-11.897677c0 1.799649 4.499121 3.299356 13.397383 4.399141 0.699863 0.09998 1.199766 0.199961 1.699668 0.299942 4.699082-0.699863 7.098614-2.09959 7.398555-4.299161-0.499902-2.899434-4.19918-4.499121-11.397774-4.599101-6.698692 0.199961-10.397969 1.599688-11.097832 4.199179M422.717438 726.758055v-0.999805c5.798867-0.09998 9.898067-0.799844 12.397579-2.09959h1.999609v19.196251c-0.599883 1.899629 2.399531 2.799453 8.998243 2.599492v1.199766h-24.795158v-1.199766c6.498731 0.199961 9.498145-0.699863 8.998243-2.599492v-14.597149c0.299941-1.099785-2.19957-1.599688-7.598516-1.499707M498.202695 735.956259h-0.399922c-2.09959 1.799649-6.198789 2.699473-12.297598 2.699472-10.797891-0.299941-16.796719-2.699473-17.896505-6.998633 0.899824-5.198985 7.398555-7.898457 19.296231-8.098418 12.397579 0.299941 19.196251 3.699277 20.396017 10.297989-0.899824 7.998438-8.898262 12.297598-23.895333 12.897481-9.098223-0.09998-13.897286-1.399727-14.397188-3.999219 0.199961-1.499707 1.999609-2.399531 5.298965-2.499512 3.299356 0.09998 4.999024 0.699863 5.298965 1.899629-0.199961 1.099785-1.599688 1.699668-4.19918 1.799648-0.899824 0-1.799649 0-2.499512-0.09998 1.599688 1.099785 5.198985 1.799649 10.49795 1.899629 9.598125-0.09998 14.497169-2.799453 14.79711-8.098418v-1.699668z m-10.897872 1.499707c7.298574 0.09998 10.897872-2.09959 10.897872-6.598712 0-4.19918-3.599297-6.29877-10.897872-6.198789-7.498535-0.09998-11.197813 1.999609-11.197813 6.198789 0 4.499121 3.699277 6.698692 11.197813 6.598712M554.29174 723.65866v15.596954h8.898262v1.399727h-8.898262v2.19957c-0.199961 1.799649 2.09959 2.699473 6.898653 2.599492v1.199766h-23.395431v-1.199766c6.098809 0.09998 8.998243-0.799844 8.598321-2.599492v-2.19957h-22.395626v-1.399727l25.295059-15.596954h4.999024z m-26.994728 15.596954h19.096271v-11.597735h-0.299942l-18.796329 11.597735zM168.167155 663.970318l-9.298184 3.899239-45.691076 1.299746 7.298574 16.99668-9.298184 3.899239-10.897871-25.39504 9.298184-3.999219 45.691076-1.199766-6.39875-14.79711 9.298184-3.999219zM138.272994 688.465534L115.977348 699.663347l-2.799453-5.598906 55.889084-28.194494 2.899434 5.598907-24.395235 12.297598 2.899433 5.698887 24.395236-12.197618 2.799453 5.598907-55.989065 28.194493-2.799453-5.698887 22.295645-11.197813zM185.363796 706.861941c-3.199375 3.599297-9.798086 8.39836-19.796133 14.297208-10.59793 6.198789-18.696348 10.198008-24.195275 11.797695-4.599102 1.499707-7.998438 0.299941-10.198008-3.499316-2.19957-3.799258-1.399727-7.498535 2.399531-11.197813 4.399141-4.399141 11.497754-9.398164 21.395821-15.297012 10.198008-5.998828 17.496583-9.398164 21.795743-10.297989 4.499121-0.799844 7.798477 0.599883 9.898067 4.099199 1.899629 3.499317 1.499707 6.798672-1.299746 10.098028M141.972271 718.959578c-2.09959 1.899629-2.699473 3.599297-1.699668 5.298965 0.699863 1.299746 2.299551 1.499707 4.599102 0.799844 3.199375-1.099785 9.098223-4.19918 17.596563-9.298184 7.498535-4.399141 12.197618-7.498535 13.897286-9.098223 1.599688-1.699668 2.09959-3.199375 1.399726-4.399141-0.699863-1.199766-2.19957-1.599688-4.499121-1.099785-2.399531 0.399922-7.398555 2.899434-14.997071 7.398555-8.298379 4.799063-13.697325 8.298379-16.296817 10.397969M147.571178 753.752783l-0.599883-0.799844 28.394454-26.894747-31.993751 21.395821-3.199375-4.799063 52.089826-34.793204 0.899824 1.399726 2.299551 3.399336 0.299941 0.599883-29.794181 28.194494 33.69342-22.495607 3.099394 4.799063-51.989845 34.793204-1.099786-1.699668zM181.064636 764.350713l-3.299356-4.299161 8.39836-6.39875 6.698692 8.798282-23.995314 18.196446-1.699668 1.299746-3.099395-4.099199 1.399727-1.699668c-1.999609-0.299941-3.599297-1.099785-4.599102-2.499512-2.09959-2.799453-1.899629-6.098809 0.699864-10.198009 2.899434-4.599102 8.598321-9.998047 16.8967-16.396797 11.097832-8.39836 18.896309-13.197422 23.495411-14.297208 4.999024-1.099785 8.298379-0.499902 10.098027 1.899629 1.899629 2.599492 2.09959 5.498926 0.499903 8.698302-1.799649 3.699277-5.099004 7.398555-9.898067 10.997851l-3.799258-4.999023c2.19957-1.699668 3.699277-3.299356 4.599102-4.699082 0.899824-1.499707 0.999805-2.699473 0.199961-3.699278s-2.599492-0.899824-5.298965 0.199961c-2.999414 1.299746-8.39836 4.999024-16.096857 10.897872-5.598906 4.29916-9.398164 7.598516-11.497754 9.998047-1.899629 2.399531-2.399531 4.099199-1.599687 5.099004 0.899824 1.099785 2.399531 1.499707 4.599101 1.099785 1.399727-0.299941 2.599492-0.799844 3.399336-1.299746 0.399922-0.299941 0.699863-0.499902 0.999805-0.699863 0.199961-0.09998 0.299941-0.199961 0.299942-0.199961l2.599492-1.699668zM180.764694 796.844366l-0.599882-0.699863 24.895137-30.094122-29.194298 25.095098-3.699277-4.39914 47.490724-40.792033 1.099785 1.299746 2.699473 3.099395 0.399922 0.499902-26.294864 31.593829 30.793985-26.394844 3.699278 4.39914-47.490725 40.792033-1.299746-1.499707zM204.959969 801.143527l-12.097637 8.998242-4.399141-4.499121 50.79008-37.592658 4.399141 4.499122-39.292326 49.490333-4.399141-4.499121 9.398165-11.897676-4.399141-4.499121z m8.49834-6.29877l2.399531 2.499512 8.39836-10.49795-10.797891 7.998438zM217.457528 834.237063l-0.699863-0.599883 21.29584-32.793595-26.194884 28.294474-4.199179-3.899238 42.591681-45.991018 1.199765 1.099785 2.999415 2.799454 0.499902 0.399921-22.495606 34.493264 27.49463-29.794181 4.19918 3.899238-42.491701 45.991018-1.399727-1.299747zM255.450107 866.230814c-2.699473-1.999609-3.499317-4.899043-2.599492-8.59832 1.199766-4.29916 4.29916-9.798086 9.098223-16.496778l23.095489-31.793791 5.099004 3.699278-23.095489 31.79379c-2.999414 4.099199-4.899043 7.098614-5.698887 9.098223-0.799844 1.899629-0.699863 3.099395 0.299942 3.799258 0.999805 0.599883 2.09959 0.399922 3.599297-0.699863 1.599688-1.299746 3.999219-4.099199 7.098613-8.39836l23.095489-31.79379 5.099005 3.699277-23.09549 31.793791c-4.799063 6.498731-8.898262 10.997852-12.497559 13.497363-3.599297 2.299551-6.698692 2.399531-9.498145 0.399922M281.245069 882.627612l-0.799843-0.499903 15.197031-35.99297-20.795938 32.493654-4.799063-3.099395 33.69342-52.789689 1.399726 0.899824 3.499317 2.19957 0.499902 0.299942-15.996875 37.892599 21.795743-34.093341 4.899043 2.999414-33.7934 52.789689-1.599688-0.999804zM325.336458 846.034759l-2.999414-1.699668 4.099199-7.498536 11.397774 6.29877-4.19918 7.498536-2.799453-1.599688-22.095685 39.792228 2.799454 1.599688-4.0992 7.498535-11.397774-6.29877 4.19918-7.498535 2.999414 1.699668zM356.230424 852.333529l5.698887 2.699472-32.993556 53.689514-0.899825-0.499902-4.499121-2.09959-0.999805-0.499903 21.195861-59.28842 5.598906 2.699473-12.897481 35.693029zM366.828354 886.826792l-3.999219 9.698105-6.998633-2.899433-5.398946 13.097442 10.897872 4.499121-3.999219 9.698106-16.696739-6.798672 23.795352-57.988674 16.79672 6.898652-3.999219 9.698106-10.997852-4.499121-6.39875 15.696934zM383.125171 930.118336l-7.098614-2.499512v-21.895723l-6.798672 19.496192-5.998828-2.09959 8.298379-23.895333 3.399336-9.898067 8.798282-25.39504 5.998828 2.09959 2.999414 0.999805c2.799453 0.999805 4.499121 3.499317 5.198985 7.598516 0.499902 3.699277-0.299941 8.598321-2.399532 14.697129-1.899629 5.398946-4.19918 9.198203-6.898652 11.297794-1.799649 1.399727-3.599297 2.09959-5.398946 2.09959l-0.09998 27.394649z m-2.199571-38.692443l1.799649 0.599883c1.799649 0.599883 3.099395 0.499902 4.099199-0.199961 1.099785-0.899824 1.999609-2.399531 2.699473-4.399141 1.099785-3.099395 1.499707-5.398946 1.399727-7.098613-0.09998-1.799649-1.099785-3.099395-2.899434-3.699278l-1.799648-0.599882-5.298966 15.396992zM399.621949 934.917399c-3.699277-0.999805-5.798867-6.198789-6.098809-15.396993l6.098809-6.39875c0.09998 7.298574 0.999805 11.197813 2.799453 11.697715 1.099785 0.299941 2.09959-0.09998 3.099395-1.099785 0.899824-0.999805 1.499707-2.09959 1.799648-3.199375 0.899824-3.099395 0.299941-8.198399-1.599687-15.197032-2.499512-8.198399-3.099395-14.597149-1.799649-19.09627 1.099785-3.999219 2.699473-7.198594 4.899043-9.698106 2.499512-2.699473 5.099004-3.599297 7.798477-2.799453 3.499317 0.999805 5.498926 5.898848 6.098809 14.597149l-6.098809 6.598711c-0.299941-6.898653-1.199766-10.59793-2.799453-10.997852-0.699863-0.09998-1.399727 0.09998-2.09959 0.799844-0.699863 0.699863-1.299746 1.799649-1.699668 3.299355-0.599883 2.19957 0.09998 6.998633 2.19957 14.497169 2.19957 7.998438 2.599492 14.597149 1.199766 19.696153-1.199766 4.399141-3.099395 7.898457-5.798867 10.397969-2.399531 2.299551-5.099004 3.099395-7.998438 2.299551M435.614919 888.126538l-3.299356-0.699864 1.799649-8.398359 12.597539 2.699473-1.699668 8.398359-3.199375-0.699863-9.298184 44.591291 3.099395 0.599883-1.699668 8.398359-12.69752-2.699473 1.699668-8.298379 3.399336 0.699864zM456.110916 946.715095l-6.198789-0.899825 7.798476-51.589923-7.998437-1.199766 1.599687-10.397969 21.995704 3.399336-1.599687 10.397969-7.798477-1.199766zM482.705722 949.814489l-6.29877-0.599882 2.19957-23.895333-5.198984-39.292326 6.798672 0.699863 2.899433 24.095294 7.098614-23.19547 6.798672 0.599883-12.097637 37.592658zM539.59461 893.825425c1.599688 4.499121 2.599492 12.59754 2.899434 24.195274 0.299941 12.297598-0.199961 21.295841-1.399726 26.894747-0.999805 4.799063-3.599297 7.198594-7.998438 7.198594-4.399141 0.09998-7.298574-2.399531-8.598321-7.498535-1.699668-5.898848-2.699473-14.597149-2.999414-26.094904-0.299941-11.797696 0.299941-19.796134 1.599687-23.995313 1.499707-4.399141 4.29916-6.598711 8.39836-6.698692 3.799258 0 6.498731 1.999609 8.098418 5.998829m-10.59793 43.791447c0.599883 2.799453 1.899629 4.099199 3.799258 4.099199 1.399727 0 2.399531-1.199766 2.899434-3.599297 0.599883-3.399336 0.699863-9.998047 0.399922-19.796134-0.199961-8.698301-0.599883-14.297208-1.299746-16.596758-0.699863-2.19957-1.799649-3.399336-3.199375-3.299356-1.399727 0-2.399531 1.199766-3.099395 3.399337-0.799844 2.299551-1.099785 7.798477-0.799844 16.696738 0.299941 9.398164 0.799844 15.796915 1.299746 19.096271M560.890451 913.721539l0.899824 10.497949-8.49834 0.699864 2.09959 25.295059-6.29877 0.499903-5.099004-62.487796 18.296427-1.499707 0.899824 10.49795-12.097637 0.999805 1.399726 16.196836zM608.881078 906.922867l2.09959 10.297988-7.398555 1.499707 2.799453 13.897286 11.597735-2.299551 2.09959 10.297989-17.696544 3.599297-12.597539-61.38801 17.696543-3.599297 2.09959 10.297988-11.497754 2.299551 3.399336 16.696739zM636.77563 926.419059c0.799844-0.199961 1.199766-0.999805 1.299746-2.499512 0.09998-1.499707-0.09998-3.199375-0.599883-5.099004l6.098809-1.599688c1.299746 4.699082 1.599688 8.898262 0.899824 12.59754-0.599883 3.799258-2.299551 5.998828-4.899043 6.798672-3.799258 0.999805-7.298574-0.999805-10.59793-5.898848-2.799453-4.399141-5.498926-11.597735-8.298379-21.795743-3.099395-11.497754-4.19918-20.096075-3.399336-25.894942 0.799844-4.899043 2.599492-7.698496 5.498926-8.39836 2.699473-0.699863 5.099004 0.09998 7.398555 2.499512 2.399531 2.699473 4.19918 6.498731 5.498926 11.297793l-6.098809 1.599688c-0.499902-1.599688-1.099785-2.999414-1.899629-4.0992-0.799844-0.999805-1.599688-1.399727-2.299551-1.199765-1.099785 0.399922-1.699668 1.999609-1.699668 4.899043 0 3.199375 1.099785 8.998243 3.399336 17.496583 2.09959 7.698496 3.799258 12.897481 5.298965 15.696934 1.699668 2.699473 3.099395 3.899238 4.399141 3.599297M653.572349 871.229838c2.899434 3.899238 6.198789 11.297793 9.898067 22.295645 3.899238 11.697715 6.098809 20.396016 6.498731 26.094904 0.499902 4.799063-1.399727 7.898457-5.498926 9.198203-4.19918 1.399727-7.598516-0.199961-10.397969-4.599102-3.399336-5.198985-6.898653-13.197422-10.49795-24.095294-3.699277-11.197813-5.598906-18.99629-5.598907-23.39543 0.09998-4.599102 2.19957-7.598516 6.098809-8.898262 3.699277-1.099785 6.898653 0 9.498145 3.399336m2.799453 44.991213c1.399727 2.499512 2.999414 3.399336 4.799063 2.799453 1.399727-0.499902 1.999609-1.899629 1.699668-4.299161-0.399922-3.399336-2.299551-9.698106-5.398945-19.09627-2.699473-8.298379-4.799063-13.497364-6.098809-15.496973-1.299746-1.899629-2.699473-2.699473-3.999219-2.19957-1.299746 0.399922-1.999609 1.799649-1.99961 4.199179-0.09998 2.399531 1.299746 7.798477 4.0992 16.196837 3.099395 8.898262 5.398946 14.89709 6.898652 17.896505M694.564343 916.720953l-0.899824 0.399922-20.595978-33.193517 14.497169 35.693029-5.298965 2.09959-23.695372-57.988675 1.599687-0.599882 3.699278-1.499707 0.599883-0.299942 21.695762 34.893185-15.297012-37.492677 5.298965-2.09959 23.695372 57.988674-1.799649 0.699863zM698.16364 852.133568c3.299356 3.499317 7.498535 10.49795 12.497559 20.895918 5.298965 11.097832 8.49834 19.496192 9.698106 25.095099 1.099785 4.699082-0.399922 7.998438-4.29916 9.798086-3.999219 1.899629-7.598516 0.799844-10.897872-3.299355-3.999219-4.699082-8.39836-12.197618-13.397383-22.595587-5.099004-10.697911-7.898457-18.196446-8.39836-22.595587-0.399922-4.599102 1.199766-7.798477 4.899043-9.498145 3.599297-1.599688 6.798672-0.899824 9.898067 2.199571m8.298379 44.291349c1.699668 2.299551 3.399336 2.999414 5.099004 2.19957 1.299746-0.599883 1.699668-2.09959 1.199766-4.499121-0.899824-3.299356-3.399336-9.398164-7.698496-18.296426-3.699277-7.898457-6.39875-12.7975-7.898458-14.597149-1.599688-1.799649-2.999414-2.299551-4.29916-1.699668-1.299746 0.599883-1.699668 2.09959-1.399727 4.39914 0.199961 2.399531 2.19957 7.598516 6.098809 15.596954 3.999219 8.39836 6.998633 14.097247 8.898262 16.8967M713.660613 837.636399l0.399922-0.199961 4.799063-2.699473 30.694005 55.089241-4.799063 2.699473-20.595977-36.992775 3.199375 12.597539-2.999414 1.699668-9.398165-9.598125 20.795939 37.292716-4.799063 2.699473-30.594025-54.98926-0.09998-0.09998 4.799063-2.699473 0.499902-0.199961 12.997461 13.597344zM731.357157 837.036516l-2.899434 1.899629-4.599102-7.298574 10.897872-6.898653 4.599102 7.198594-2.699473 1.699668 24.395235 38.392502 2.799453-1.699668 4.599102 7.198594-10.997852 6.998633-4.599102-7.198594 2.899434-1.899629zM781.147432 856.93263c0.599883-0.499902 0.799844-1.399727 0.299942-2.799453-0.399922-1.399727-1.199766-2.899434-2.399532-4.599102l5.099004-3.699277c2.799453 3.899238 4.599102 7.698496 5.398946 11.497754 0.799844 3.799258 0.09998 6.39875-2.199571 8.098419-3.199375 2.299551-7.198594 1.699668-11.997656-1.799649-4.19918-3.099395-9.298184-8.898262-15.496974-17.396602-6.998633-9.598125-11.097832-17.296622-12.397578-22.995509-0.999805-4.799063-0.299941-8.098418 2.19957-9.898067 2.19957-1.599688 4.799063-1.699668 7.898458-0.299941 3.199375 1.699668 6.198789 4.599102 9.198203 8.598321l-5.099004 3.699277c-0.999805-1.399727-2.09959-2.399531-3.299356-3.199375-1.099785-0.599883-1.999609-0.699863-2.499511-0.299942-0.899824 0.699863-0.899824 2.499512 0.199961 5.198985 1.099785 2.999414 4.19918 7.998438 9.398164 15.197032 4.699082 6.498731 8.198399 10.697911 10.59793 12.7975 2.19957 2.09959 3.999219 2.699473 5.099004 1.899629M806.342511 849.734036c-2.999414 2.499512-8.39836 1.199766-16.096856-3.899238l-1.699668-8.698301c5.998828 4.099199 9.698106 5.598906 11.197813 4.399141 0.899824-0.699863 1.199766-1.799649 0.899824-3.199376-0.299941-1.299746-0.799844-2.399531-1.599687-3.299355-1.999609-2.499512-6.498731-4.999024-13.297403-7.498536-8.098418-2.699473-13.697325-5.898848-16.596759-9.498144-2.599492-3.199375-4.29916-6.39875-5.099004-9.598126-0.699863-3.599297 0-6.198789 2.199571-7.998438 2.899434-2.299551 7.998438-1.099785 15.396993 3.399336l1.899628 8.698302c-5.798867-3.799258-9.298184-5.099004-10.69791-3.999219-0.499902 0.499902-0.699863 1.199766-0.599883 2.19957 0.09998 0.999805 0.699863 1.999609 1.699668 3.299356 1.399727 1.799649 5.798867 3.999219 13.097442 6.598711 7.798477 2.799453 13.397383 6.29877 16.796719 10.397969 2.899434 3.499317 4.599102 7.098614 5.198985 10.697911 0.499902 3.399336-0.399922 6.098809-2.699473 7.998437M832.837336 805.342707l9.398165 11.797695-4.399141 4.499122-39.292326-49.490334 4.399141-4.499122 50.79008 37.592658-4.399141 4.499121-12.197617-8.898262-4.299161 4.499122z m-6.598711-8.29838l2.399532-2.499512-10.797891-7.998437 8.398359 10.497949zM867.53056 789.24585l-0.599882 0.699864-33.69342-19.896114 29.394259 24.995118-3.699277 4.29916-47.790666-40.492091 1.099785-1.299746 2.599492-3.099395 0.499903-0.499902 35.293107 20.995899-30.893966-26.294864 3.699277-4.299161 47.790666 40.492092-1.299746 1.499707zM840.935755 732.756883c4.699082 1.199766 11.397774 5.198985 20.296036 11.897677 10.297989 7.798477 16.596758 13.897286 18.996289 18.296426 2.09959 4.099199 1.999609 7.798477-0.499902 10.997852l-4.499121 5.998828-49.990236-37.792618 4.499121-5.998829c2.799453-3.599297 6.598711-4.699082 11.197813-3.399336m30.394063 34.893185c1.099785-1.399727 0.899824-3.199375-0.599882-5.498926s-5.998828-6.29877-13.597345-11.997656c-5.998828-4.499121-10.49795-7.298574-13.497364-8.498341-2.499512-0.999805-4.29916-0.699863-5.498925 0.899825l-0.699864 0.999804 33.193517 25.095099 0.699863-0.999805zM854.233158 700.163249l44.891232 26.494826 6.29877-10.49795 8.998242 5.298965-9.398164 15.896895-53.989456-31.79379zM909.322398 699.263425l12.497559 8.49834-2.799453 5.598907-52.189807-35.593048 2.799453-5.598907 59.688342 20.795938-2.799453 5.598907-14.297207-4.899043-2.899434 5.598906z m-8.798282-5.998828l1.599688-3.099395-12.69752-4.399141 11.097832 7.498536zM904.323374 660.970904l16.096856 4.29916-39.392306-18.596367 1.99961-4.599102 56.588947 26.894747-0.599883 1.399727-1.299746 3.099394-0.09998 0.299942-22.495607-5.998829 19.396212 12.297598 0.299941 0.099981v0.09998l-1.399726 3.299356-0.499903 1.199766-58.788517-21.895724 1.999609-4.599102 41.191955 15.396993-14.497169-9.098223zM417.618434 770.249561c0.999805 0.09998 1.599688 1.299746 1.899629 3.599297-0.09998 2.499512-0.299941 4.29916-0.399922 5.298965 0 0.399922 0.09998 0.599883 0.399922 0.399922h11.997657c2.799453 0.599883 4.19918 1.499707 4.199179 2.999414-0.399922 0.799844-0.699863 2.599492-0.799843 5.298965v1.899629c-0.399922 2.09959-1.699668 3.199375-3.799258 3.399336h-11.597735c-0.299941 0-0.399922 0.09998-0.399922 0.399922v13.897285c0 3.499317-0.599883 5.298965-1.899629 5.298965-1.399727-0.299941-1.999609-1.899629-1.699668-4.899043V793.545011c0-0.09998-0.09998-0.299941-0.399922-0.399922-2.499512 0-4.899043 0.09998-7.198594 0.199961-2.09959 0.09998-3.899238 0.399922-5.298965 0.599883-2.699473 0.699863-4.099199-0.199961-4.399141-2.699473-0.09998-0.999805-0.299941-2.499512-0.399922-4.399141v-4.899043c-0.09998-1.999609 0.699863-2.699473 2.499512-2.299551 0.09998 0.09998 2.499512 0.199961 7.198594 0.199961 3.199375-0.09998 5.798867-0.199961 7.798477-0.199961 0.299941 0.09998 0.399922 0 0.399922-0.399922v-5.698887c0.09998-1.799649 0.699863-2.899434 1.899629-3.299355m-16.496778 13.897285v4.399141c-0.09998 1.699668 0.799844 2.499512 2.699473 2.299551 7.298574-0.299941 10.997852-0.499902 11.197813-0.599883 0.299941 0.09998 0.399922 0 0.399922-0.399922l0.19996-7.998438c0-0.09998-0.09998-0.299941-0.399921-0.399921-4.899043 0.09998-8.898262 0.299941-11.797696 0.399921-1.599688 0.199961-2.399531 0.899824-2.299551 2.299551m27.394649-2.499511h-5.998828c-1.099785 0-2.19957-0.09998-3.199375-0.199961-0.399922 0.09998-0.599883 0.299941-0.399922 0.399921v7.998438c-0.09998 0.399922 0 0.599883 0.399922 0.399922 4.899043 0.09998 7.898457 0.09998 9.098223-0.199961 2.09959 0.09998 3.199375-0.499902 3.199375-1.899629 0.09998-1.499707 0.299941-2.799453 0.399922-3.799258 0.09998-1.599688-1.099785-2.599492-3.499317-2.699472M459.11033 770.849443c1.999609 0.299941 5.698887 0.499902 11.197813 0.599883 5.898848 0.09998 12.397579 0.199961 19.596173 0.199961 3.899238 0.399922 5.798867 1.799649 5.498926 3.999219-0.699863 1.399727-1.099785 2.999414-1.099786 4.599102 0-0.09998-0.09998 4.099199-0.199961 12.69752s-0.09998 12.69752 0 12.397579c0 3.099395-1.699668 4.19918-5.099004 3.399336-3.099395-0.399922-7.198594-0.799844-12.397578-1.099786-7.998438-0.09998-13.497364 0-16.496778 0.399922-3.699277 0.699863-5.198985-0.599883-4.599102-3.999219v-17.996485c-0.09998-5.798867-0.299941-9.598125-0.399922-11.397774-0.09998-2.499512 1.199766-3.799258 3.999219-3.799258m3.199375 34.793205l24.495216 0.199961c3.099395 0.09998 4.599102-1.099785 4.599102-3.599297v-14.79711c0.09998-1.999609 0.199961-4.699082 0.199961-8.198399-0.09998-3.199375-1.599688-5.099004-4.399141-5.498926-5.798867-0.09998-10.397969-0.199961-13.897286-0.199961-3.699277 0-6.998633 0.09998-10.098028 0.199961-2.799453 0.299941-4.399141 1.799649-4.599101 4.399141-0.09998 4.19918-0.199961 8.39836-0.199961 12.69752 0 4.099199 0.09998 7.598516 0.199961 10.49795-0.09998 2.899434 1.099785 4.29916 3.699277 4.29916m13.697325-14.097247v6.098809c0 0.699863 0.199961 1.099785 0.599883 1.099785h7.398555c1.299746 0.09998 2.399531 0.399922 3.399336 0.799844 0.399922 0.599883 0.399922 1.099785 0 1.699668-0.299941 0.599883-0.799844 0.699863-1.699668 0.399922-6.29877-0.999805-13.997266-0.999805-22.995509 0-0.699863 0.09998-1.099785 0.09998-1.299746-0.199961-0.09998-0.299941 0.09998-0.799844 0.599883-1.499707 1.099785-1.099785 2.499512-1.699668 3.999219-1.699668 0.299941 0.09998 1.099785 0.299941 2.499511 0.399922h3.799258c0.599883 0.09998 0.799844-0.199961 0.799844-1.099785v-6.098809c0-0.599883-0.199961-0.799844-0.599883-0.799844l-3.399336 0.199961c-2.299551 0.299941-3.299356 0.399922-3.199375 0.199961-0.799844 0.09998-1.399727 0-1.699668-0.399922-0.299941-0.599883-0.09998-1.099785 0.399922-1.699668 0.999805-0.699863 1.999609-0.999805 3.199375-0.799844 0.299941 0.299941 1.799649 0.399922 4.599102 0.199961 0.399922 0 0.599883-0.199961 0.599883-0.599883v-5.498926c0-0.799844-0.399922-1.299746-1.099785-1.299746-4.099199 0-6.698692 0.199961-7.798477 0.599883-0.699863 0.299941-1.199766 0.199961-1.499707-0.199961-0.299941-0.399922-0.199961-0.999805 0.19996-1.699668 0.799844-1.299746 2.09959-1.799649 3.799258-1.699668 2.499512 0.299941 5.099004 0.499902 7.798477 0.599883 2.699473 0.09998 5.598906 0.09998 8.598321 0 0.999805 0 1.699668 0.299941 2.09959 0.799844 0.599883 0.999805 0.299941 1.499707-0.799844 1.699668h-3.199375c-1.799649-0.09998-3.199375-0.199961-4.19918-0.199961-0.699863 0-1.099785 0.399922-1.099785 1.099785 0 0.09998-0.09998 1.099785-0.199961 2.999414-0.09998 1.799649-0.09998 2.699473 0 2.699473 0 0.399922 0.199961 0.599883 0.599883 0.599883h6.29877c0.799844 0 1.299746 0.399922 1.499707 1.299746 0 0.699863-0.399922 1.099785-1.099786 1.099785h-6.798672c0.09998 0.09998-0.09998 0.399922-0.09998 0.899824m5.298965 1.099785c0.599883-0.799844 1.399727-0.899824 2.499512-0.19996 1.099785 0.999805 1.099785 1.899629 0 2.699472-1.299746 0.999805-2.699473 1.799649-4.19918 2.299551-0.599883 0.09998-0.899824 0.09998-1.099785-0.199961-0.299941-0.299941-0.199961-0.599883 0.199961-1.099785 1.099785-1.299746 1.999609-2.499512 2.599492-3.499317M561.190393 770.249561c1.499707 0.299941 1.999609 1.799649 1.499707 4.599101-0.09998 1.099785-0.09998 3.399336 0.199961 6.798673 0 0.599883 0.09998 0.899824 0.19996 1.099785 3.899238-0.09998 7.998438-0.299941 12.197618-0.399922 1.099785 0 1.899629 0.399922 2.299551 1.099785 0.299941 0.799844-0.299941 1.199766-1.699668 1.099785h-12.397579c0.699863 5.198985 3.299356 9.898067 7.798477 14.097247 4.19918 4.19918 8.39836 6.698692 12.397579 7.398555 1.499707 0.299941 0.899824 1.099785-1.899629 2.299551-2.499512 1.099785-4.699082 0.899824-6.498731-0.599883-2.499512-2.19957-4.599102-4.599102-6.29877-7.198594-3.899238-5.198985-6.498731-10.49795-7.798476-15.996876-0.999805 0.09998-1.899629 0.199961-2.699473 0.199961-6.798672 0.09998-11.997657 0.599883-15.796915 1.299746-2.09959 0.399922-3.299356 0.499902-3.599297 0.199961-0.399922-0.399922 0.09998-1.199766 1.499707-2.299551 0.799844-1.099785 2.09959-1.499707 3.799258-1.099785 0.09998 0.09998 3.199375 0.199961 9.098223 0.199961 3.399336-0.09998 5.798867-0.199961 7.398555-0.199961-0.599883-2.699473-0.899824-5.598906-1.099785-8.59832-0.299941-3.099395 0.09998-4.399141 1.399727-3.999219m-10.098028 17.296621c1.999609 0.699863 2.699473 1.699668 2.09959 2.999415-0.399922 0.299941-0.599883 1.199766-0.399922 2.699472 0 0.799844 0.399922 1.099785 1.099785 0.799844 1.399727-0.599883 2.599492-1.499707 3.599297-2.699473 0.599883-0.599883 1.099785-0.09998 1.699668 1.299746 0.299941 1.499707-0.299941 2.299551-1.699668 2.09959-0.299941 0-0.799844 0.09998-1.699668 0.199961H553.891818c-0.799844 0.299941-1.199766 0.699863-1.099785 1.299746-0.09998 0.399922-0.299941 1.099785-0.399922 1.899629v1.899629h3.599297c1.999609-0.09998 3.399336-0.199961 4.19918-0.19996 0.699863 0.09998 1.099785 0.399922 1.099785 0.799843-0.09998 0.399922-0.599883 0.699863-1.299746 0.799844-7.998438 0.799844-13.097442 1.599688-15.197032 2.299551-0.09998 0.09998-0.299941 0.199961-0.399922 0.199961-1.999609 0.999805-3.199375 1.199766-3.599297 0.599883-1.099785-0.999805-0.399922-1.999609 2.09959-3.199375 0.699863-0.399922 0.999805-1.199766 0.799844-2.299551-0.09998-1.299746-0.399922-2.499512-0.799844-3.799258v-0.599883c-0.299941-1.799649 0-2.799453 0.799844-2.999414 1.799649 0.299941 2.699473 1.299746 2.499512 3.199375-0.299941 1.499707-0.399922 2.999414-0.199961 4.19918-0.09998 1.099785 0.199961 1.499707 1.099785 1.299746h1.899629c0.699863-0.09998 1.299746-0.199961 1.699668-0.199961V794.044913c-0.09998-1.799649-0.399922-3.199375-0.599883-3.999219-0.899824-1.599688-0.599883-2.499512 0.999805-2.499512m-1.699668-11.797695c0.299941 0.299941 0.999805 0.499902 2.09959 0.599882 0.999805 0.09998 2.799453 0.09998 5.498926 0 0.599883 0.09998 0.999805 0.499902 1.299746 1.099786 0 0.599883-0.299941 0.799844-0.799844 0.799843-3.399336 0-5.798867 0.09998-7.198594 0.199961h-5.099004c-1.299746 0.09998-1.999609 0-2.09959-0.399922-0.09998-0.599883 0.299941-1.099785 1.299746-1.699668 2.19957-1.099785 3.899238-1.299746 4.999024-0.599882m20.695958-2.299551c0.399922-0.799844 1.199766-0.599883 2.29955 0.599883 0.599883 1.099785 0.399922 1.999609-0.399921 2.499511-1.299746 0.999805-2.299551 1.999609-2.999415 2.999415-0.299941 0.399922-0.599883 0.599883-0.799843 0.399921-0.299941-0.299941-0.399922-0.699863-0.199961-1.299746 0-0.09998 0.09998-0.399922 0.199961-0.799843 0.499902-1.499707 1.199766-2.999414 1.899629-4.399141M598.283148 785.046671c2.09959 2.299551 3.399336 3.599297 3.799258 3.999218 0.299941 0.599883 0.299941 0.999805 0.199961 1.299747-0.09998 0.299941-0.499902 0.299941-1.099785 0-1.799649-0.599883-3.399336-1.099785-4.899044-1.499707-1.499707-0.299941-1.899629-1.199766-1.099785-2.699473 1.099785-1.499707 2.09959-1.799649 3.099395-1.099785m7.398555 9.698105c0.399922-0.599883 0.799844-0.799844 1.299746-0.599882 0.299941 0.299941 0.299941 0.799844 0 1.499707-0.699863 0.799844-1.599688 2.299551-2.699473 4.19918-1.499707 2.399531-2.699473 4.099199-3.399336 5.099004-0.999805 1.299746-2.09959 1.299746-3.399336 0-1.499707-1.399727-1.599688-2.399531-0.199961-2.999415 2.399531-1.299746 5.198985-3.699277 8.39836-7.198594m-5.099004-21.995704c1.499707 1.399727 2.799453 2.699473 3.799258 3.799258 0.299941 0.599883 0.299941 1.099785 0 1.499707-0.299941 0.299941-0.599883 0.299941-1.099786 0-2.299551-0.999805-3.899238-1.799649-5.099004-2.29955-1.499707-0.399922-1.799649-1.299746-0.599882-2.699473 1.099785-0.899824 2.09959-0.999805 2.999414-0.299942m30.394063 1.699668c1.399727 0 1.999609 0.999805 1.699668 2.999415-1.499707 7.598516-3.299356 12.69752-5.298965 15.197031-0.299941 0.599883-0.09998 0.999805 0.399922 1.299747 7.498535 6.29877 12.197618 9.698106 14.297208 10.098027 0.599883 0.299941 0.799844 0.599883 0.799844 0.799844 0 0.299941-0.199961 0.499902-0.599883 0.599883-3.799258 2.09959-6.39875 2.09959-7.798477 0-0.999805-0.999805-1.999609-2.09959-3.199375-3.399336-1.499707-1.799649-3.399336-3.899238-5.498926-6.29877-0.399922-0.399922-0.799844-0.399922-1.099785 0-4.099199 4.399141-8.49834 6.998633-13.297403 7.998438-2.499512 0.599883-4.19918 0.499902-5.099004-0.199961-0.699863-0.799844-0.499902-1.599688 0.599882-2.299551 7.198594-1.099785 12.497559-3.499317 15.996876-7.198594 0.299941-0.09998 0.299941-0.499902 0-1.099785-3.799258-3.399336-6.698692-5.698887-8.598321-6.998633-0.799844-0.699863-0.799844-1.299746 0-1.899629 0.999805-0.599883 1.999609-0.399922 3.199376 0.399922l1.899629 1.899629c2.399531 2.299551 4.099199 3.799258 5.099004 4.599101 0.399922 0.599883 0.799844 0.499902 1.099785-0.19996 1.799649-3.099395 2.999414-6.798672 3.599297-10.997852 0.09998-1.999609-0.799844-3.099395-2.699473-3.399337-5.598906 0.09998-9.798086 0.699863-12.69752 1.699668-1.499707 0.399922-2.09959-0.199961-1.699668-1.899628 0.699863-1.299746 1.799649-1.899629 3.399336-1.899629h15.496973z" fill="#016766" p-id="4328"></path><path d="M165.667643 479.406366c-5.298965-1.199766-44.991213-8.998243-44.991213-8.998243-8.698301-2.899434-12.997461-8.998243-12.997461-8.998242-0.699863-6.798672-6.998633-4.999024-6.998633-4.999024-21.19586-39.192345-30.993946 1.999609-30.993947 1.99961-3.499317 1.099785-4.999024-0.999805-4.999023-0.999805-3.399336-1.699668-7.998438-0.999805-7.998438-0.999805-5.498926 3.299356-5.998828 4.999024-5.998828 4.999024-0.899824 7.398555 3.999219 9.998047 3.999218 9.998047l15.996876 0.999805 10.997852 10.997852c1.799649 3.099395 0.999805 5.998828 0.999805 5.998828-3.599297 5.698887-3.999219 6.998633-3.999219 6.998633 0.199961 2.599492 2.999414 4.999024 2.999414 4.999024l5.998828 0.999805c12.297598 1.699668 17.996485-3.999219 17.996486-3.999219 2.399531-5.598906 7.998438-11.997657 7.998437-11.997657l0.999805-9.998047 47.990627 6.998633c10.49795 0.599883 2.999414-3.999219 2.999414-3.999219m-87.982816-20.695958c0.09998-2.299551 3.399336-5.298965 3.399336-5.298965 12.7975 9.198203 9.798086 12.197618 9.798087 12.197618-7.898457 1.499707-13.197422-6.898653-13.197423-6.898653m25.195079 25.195079s-14.197227 1.799649-18.396407-9.098223c0 0 9.198203 0.299941 14.497169 1.099785-0.09998 0 4.19918 4.29916 3.899238 7.998438M200.96075 347.932045c-4.29916-2.499512-19.296231-9.998047-19.296231-9.998048-4.799063-4.099199 1.599688-6.998633 3.199375-7.498535 0.199961-0.09998 0.299941-0.09998 0.299941-0.099981 0.999805-0.399922 6.498731-3.199375 6.498731-3.199375 4.099199-3.899238 0.599883-10.59793 0.599883-10.59793-0.899824-1.299746-4.19918-1.599688-4.19918-1.599687l-21.995704-20.495997c-8.49834-3.399336-13.797305 3.999219-13.797305 3.999219-10.397969 5.798867-12.7975 18.596368-12.797501 18.596368-0.799844 9.798086 2.699473 14.097247 2.699473 14.097246 3.299356 6.798672-1.799649 4.29916-1.799649 4.29916-1.799649-1.899629-8.198399-8.298379-8.198398-8.298379-1.699668-4.399141-8.898262-17.596563-8.898262-17.596563-3.699277-8.198399-7.398555-2.399531-7.398555-2.399531-2.999414 6.998633-7.198594-0.999805-7.198594-0.999805-3.399336-4.999024-4.799063-0.299941-4.799063-0.299941-2.399531 6.498731 7.298574 12.997461 7.298574 12.997461 5.298965 2.19957 4.799063 4.499121 4.799063 4.499121-0.09998 7.398555 2.299551 13.997266 2.299551 13.997266 7.498535 5.099004 10.697911-2.999414 10.697911-2.999414 1.499707-2.699473 3.499317-1.499707 3.499316-1.499707C135.173599 335.134544 145.97149 345.132591 145.97149 345.132591c4.19918 3.899238-0.599883 6.798672-0.599883 6.798672 3.799258 10.49795 25.095099 14.097247 25.095099 14.097247 15.297012-1.499707 4.19918-8.098418 4.19918-8.098418-4.499121-2.19957-15.197032-6.898653-15.197032-6.898653-7.898457-4.599102-5.798867-10.697911-5.798868-10.69791 2.799453 0.799844 4.19918-0.399922 4.19918-0.399922 2.699473-5.198985 3.299356-1.499707 3.299356-1.499707 0.899824 6.598711 17.296622 8.098418 17.296622 8.098418 1.099785-2.499512 3.799258-2.899434 3.799257-2.899434 5.698887 2.799453 14.89709 6.998633 14.897091 6.998633 12.397579 3.799258 3.799258-2.699473 3.799258-2.699472m-51.289983-18.196446s-2.299551 4.499121-4.29916-1.399727c0 0-0.199961-1.899629 2.199571-1.399727 0 0 2.699473 0.999805 2.099589 2.799454m23.695372-1.399727c-4.19918 3.199375-5.498926-1.999609-5.498926-1.99961-1.099785-4.29916-3.799258-2.19957-3.799258-2.19957-5.398946 6.998633-7.698496-2.299551-7.698496-2.299551-0.299941-7.098614-4.499121-5.998828-4.499121-5.998828-4.29916 0.499902-4.799063 7.098614-4.799063 7.098613-0.699863 4.399141-2.399531 2.999414-2.399531 2.999415-1.999609-3.799258 0.799844-9.998047 0.799844-9.998048 0.999805-7.598516 6.29877-11.797696 6.298769-11.797695 7.198594-6.998633 14.597149 1.799649 14.597149 1.799648 10.297989 5.698887 12.897481 13.697325 12.897481 13.697325 2.09959 8.898262-5.898848 8.698301-5.898848 8.698301M312.638938 216.057801c-1.099785-2.09959-5.898848-7.998438-5.898848-7.998438-1.599688-2.499512-3.299356-3.399336-3.299356-3.399336-3.399336-1.599688-20.296036-19.996095-20.296036-19.996094-2.799453-2.999414-1.399727-5.398946-1.399726-5.398946 1.099785-1.999609 0-3.099395 0-3.099394l-3.099395-5.298965c-1.999609-2.399531 1.999609-4.999024 1.999609-4.999024 1.899629-1.599688 0.899824-3.499317 0.899825-3.499317l-4.499122-4.599101c-1.299746-2.299551-3.999219 0.09998-3.999218 0.09998-4.099199 4.499121-7.498535 1.999609-7.498536 1.99961-3.399336-1.599688-2.799453-5.598906-2.799453-5.598907-5.099004-2.999414-1.299746-5.398946-1.299746-5.398945-1.999609-5.998828-9.398164-10.797891-9.398165-10.797891-7.498535-0.09998-6.498731 3.799258-6.49873 3.799258 7.998438 7.998438 13.097442 15.996876 13.097442 15.996875 2.09959 5.298965 8.798282 13.297403 8.798281 13.297403v3.899238c-3.299356 2.899434-4.599102 14.597149-4.599102 14.597149 0 11.797696 4.999024 5.998828 4.999024 5.998829 5.798867-18.396407 7.498535-5.398946 7.498535-5.398946 4.29916 22.295645-1.399727 18.596368-1.399726 18.596368-4.499121 0.299941-28.494435-33.293497-28.494435-33.293497-3.899238-3.099395-0.699863-6.798672-0.699863-6.798672 2.09959-0.499902 1.399727-4.29916 1.399726-4.299161-3.499317-5.598906-11.297793-4.999024-11.297793-4.999023-9.098223 0.399922-7.598516 9.498145-7.598516 9.498145 0.799844 7.798477 4.499121 19.596173 4.499121 19.596172-0.599883 8.49834-4.899043 1.599688-4.899043 1.599688-7.298574-10.397969-4.499121 0-4.499121 0 15.796915 34.093341 30.793986 29.294278 30.793986 29.294278 4.999024-7.098614 5.898848-2.399531 5.898847-2.399531 0.299941 4.099199 3.999219 32.593634 3.999219 32.593634 5.598906 13.097442 6.098809 4.099199 6.098809 4.099199-2.999414-4.099199 0-27.094708 0-27.094708 2.899434-2.799453 11.097832-2.999414 11.097833-2.999414 3.499317-1.799649 1.499707-5.498926 1.499707-5.498926-2.09959-3.999219 0.599883-7.498535 0.599883-7.498535 3.299356-6.598711 0.899824-10.098028 0.899824-10.098028-1.499707-11.297793 5.898848 0.399922 5.898848 0.399922l18.396407 21.995704c4.499121 3.499317 5.798867 0.399922 5.798867 0.399922 0.599883-3.599297-0.699863-7.298574-0.699863-7.298575m-76.385081-40.991994s7.598516 7.098614 4.39914 9.998048c0 0-6.898653 5.998828-4.39914-9.998048m15.896895 36.392892s-3.899238 2.799453-7.898458-5.398945c0 0-3.999219-5.498926-5.298965-9.898067 0 0-0.399922-4.899043 2.299551-1.499707 0 0 2.399531 1.499707 3.499317-2.899434 0 0 3.499317-5.798867 6.29877 0 0 0 1.899629 3.299356 2.799453 5.798868-0.09998 0.09998 0.899824 9.898067-1.699668 13.897285m16.296817 5.598907c-1.299746-0.499902-3.999219-5.398946-3.999219-5.398946-0.399922-0.599883 1.099785-1.599688 1.099785-1.599687 1.599688 0.199961 3.799258 3.599297 3.799258 3.599297 1.799649 3.699277-0.899824 3.399336-0.899824 3.399336" fill="#016766" p-id="4329"></path><path d="M242.852568 196.86155s4.099199-3.599297 6.998633 0c0 0 1.599688 2.399531 0 6.098809 0 0-6.898653 0.799844-6.998633-6.098809M408.620191 61.987893s5.698887 4.29916 7.998438 5.798867c0 0 2.699473 2.699473-1.199765 6.798673 0 0-0.699863-0.199961-1.499708 3.799257 0 0-6.498731 9.698106-8.298379 11.797696 0 0-3.199375 8.298379 4.499121 2.999414 0 0 4.799063 1.799649 2.699473 8.198399 0 0-2.699473 4.999024-1.499707 8.998243 0 0 6.998633 0.199961 5.198985 7.498535 0 0-2.699473 4.19918-3.299356 8.198399 0 0-1.999609 8.298379 3.099395-0.299942 0 0 4.19918-3.099395 2.599492 2.699473 0 0-3.399336 9.598125-2.399531 14.997071 0 0-0.399922 10.098028-4.399141 12.397579 0 0-3.099395 3.299356-7.098614-3.799258 0 0-2.699473-4.899043-1.599687-10.098028 0 0 1.399727-0.599883 1.099785-7.098614 0 0 0.799844-0.899824 2.299551-6.698691 0 0 1.499707-5.798867 0.09998-9.998047 0 0-3.799258 0.599883-3.699277-6.29877 0 0 0.999805-9.198203-3.499317 0.499902 0 0-1.699668 9.298184-6.698691 4.799063 0 0-5.198985-1.499707-1.299746-9.298184 0 0 9.198203-16.696739 10.297988-19.296231 0 0 0.999805-2.499512 1.799649-8.49834 0 0.09998 0-18.596368 4.799062-18.096466M428.416325 74.785393s4.999024-7.298574 6.798672-9.498144c0 0 12.7975-1.999609 15.496973 0 0 0 4.999024 4.29916-5.298965 7.998437 0 0-3.299356 1.499707-7.698496 0.299942 0 0-2.699473 5.498926-7.498536 4.499121 0.09998 0.09998-2.299551-2.499512-1.799648-3.299356M463.109549 144.971685c-2.699473-8.198399-11.097832-3.499317-11.097833-3.499316-9.098223-0.299941-2.499512-12.997461-2.499511-12.997462 4.19918-4.999024 1.199766-7.998438 1.199765-7.998438-3.699277-1.199766-8.798282-15.796915-8.798281-15.796914-2.499512-5.798867-0.699863-11.297793-0.699864-11.297794 3.799258-2.799453 7.198594 0.299941 7.198594 0.299942 11.797696 0.299941 5.698887-7.298574 5.698887-7.298575-1.499707-1.199766-12.297598-5.998828-12.297598-5.998828-4.19918-4.499121-7.498535 1.499707-7.498535 1.499707-1.299746 2.699473-0.299941 4.999024-0.299942 4.999024 0.999805 1.699668 0.199961 5.198985 0.199961 5.198984-0.799844 1.199766-1.999609 2.799453-1.999609 2.799453-1.799649-0.699863-7.698496 0-7.698496 0-1.699668 1.799649-0.799844 8.998243-0.799844 8.998243 0.199961 1.999609 1.799649 1.799649 1.799648 1.799649 0.699863 7.498535 10.697911 8.998243 10.697911 8.998242 2.19957 1.999609 1.199766 5.298965 1.199765 5.298965-1.199766 3.999219-4.29916 6.198789-4.29916 6.198789-2.999414 4.29916 3.399336 11.197813 3.399336 11.197813 4.699082 8.198399 0 9.298184 0 9.298184-4.499121 6.998633-5.298965 7.198594-5.298965 7.198594 0 13.697325 8.298379 6.698692 8.298379 6.698692 3.699277-3.699277 10.797891-3.799258 10.797891-3.799258 1.999609-1.799649 7.298574-2.999414 7.298575-2.999414 7.298574-1.999609 5.498926-8.798282 5.498926-8.798282m-28.494435-42.29174c-2.999414 1.499707-3.299356-1.699668-3.299355-1.699668v-0.799843c1.299746-2.699473 3.299356 0 3.299355 0v2.499511zM656.771724 163.967975c-16.196837-4.699082-23.19547-16.99668-23.195469-16.99668-2.999414-1.699668-3.799258-5.998828-3.799258-5.998829 8.49834-7.498535 13.797305-17.996485 13.797305-17.996485 3.999219-4.19918-1.499707-11.997657-1.499707-11.997656-4.799063-4.19918-6.698692 0.999805-6.698692 0.999804 0.799844 8.198399-6.998633 18.796329-6.998633 18.796329-4.699082 5.698887-4.29916 0-4.29916 0-3.199375-5.998828-6.998633-7.198594-6.998633-7.198594-6.198789-0.199961-1.199766-4.29916-1.199766-4.29916 1.799649-1.499707 3.699277-6.098809 3.699277-6.098809 3.699277-4.399141 4.19918-1.299746 4.19918-1.299746 3.799258 2.699473 6.198789 0.299941 6.698692 0s8.098418-5.298965 8.098418-5.298965c2.599492-2.699473 6.498731-1.699668 6.498731-1.699668 2.799453 3.299356 5.698887 1.999609 5.698887 1.999609 0.999805-2.299551 2.499512-1.499707 2.499512-1.499707 10.49795-1.799649 5.298965-11.197813 5.298965-11.197813-2.999414-3.299356-13.697325 2.19957-13.697325 2.199571-11.997657 5.698887-6.39875-0.299941-6.39875-0.299942 1.999609-2.499512 14.197227-13.997266 14.197227-13.997266 4.999024-7.298574-0.799844-11.997657-0.799844-11.997657-1.799649-3.499317-6.698692 1.799649-6.698692 1.799649-1.799649 2.699473-25.694981 36.192931-25.694981 36.192931-5.798867 4.699082-3.999219-0.699863-3.999219-0.699863 1.199766-2.299551-3.999219-3.299356-3.999219-3.299356-7.498535 0.799844-1.299746-6.998633-1.299746-6.998633 4.499121-6.798672 10.997852-8.698301 10.997852-8.698301 4.999024-5.798867-0.199961-9.498145-0.199961-9.498145-3.999219-2.999414-10.198008 0-10.198008 0-2.299551 0.999805-12.69752 0.699863-12.69752 0.699863-3.799258 0.499902-4.999024 5.498926-4.999024 5.498926-1.699668 8.298379 2.999414 9.298184 2.999414 9.298184C598.883031 98.180824 600.88264 97.181019 600.88264 97.181019c1.299746 2.299551-1.799649 8.49834-1.799648 8.498341-4.19918 3.799258-5.298965 8.698301-5.298965 8.698301-1.699668 11.497754-4.29916 2.999414-4.299161 2.999414-2.999414-5.498926-4.799063 0.499902-4.799062 0.499902-2.09959 4.099199-4.599102 5.498926-4.599102 5.498926-3.499317 2.699473-2.999414 6.798672-2.999414 6.798672-1.199766 8.998243 4.999024 16.99668 4.999023 16.996681 10.797891 3.199375 19.196251-11.297793 19.196251-11.297794 10.297989-14.297208 2.999414 8.198399 2.999414 8.198399-0.999805 4.999024 1.799649 9.798086 1.799649 9.798086 4.499121 5.298965 11.197813-2.19957 11.197813-2.19957 5.498926-5.498926 8.298379 0.799844 8.298379 0.799844 2.699473 4.699082 11.997657 15.297012 11.997657 15.297012 9.498145 2.599492 15.696934 0.999805 15.696934 0.999805 9.098223-1.299746 3.499317-4.799063 3.499316-4.799063M590.584651 135.173599s-4.999024 3.499317-3.299355-5.198985c0 0 2.699473-4.19918 1.799648-5.998828 0 0 1.299746-2.19957 2.999415-0.799844 0 0 0.699863 10.098028-1.499708 11.997657m12.69752-9.698106c-2.499512 2.499512-4.19918 0-4.199179 0 0.299941-1.799649 5.298965-8.198399 5.298965-8.198399h5.298965c1.099785 1.499707-6.39875 8.198399-6.398751 8.198399m12.49756 20.595977c-7.398555 0.799844-0.299941-7.998438-0.299942-7.998437 2.599492-0.799844 3.299356 1.799649 3.299356 1.799648 3.899238 3.199375-2.999414 6.198789-2.999414 6.198789M782.347198 162.268307s-5.099004 3.999219-2.799453 7.498535c0 0 3.599297 7.898457 9.998047 4.599102 0 0 3.499317-3.899238 4.799063-3.999219 0 0 2.499512-0.499902 1.499707-5.398945 0 0 0.799844-0.799844 0.899824-2.799454 0 0 2.09959-0.299941 2.09959-3.099394 0 0-0.999805-5.898848-6.998633-3.899239l-9.498145 7.098614zM773.348955 173.066198s0.09998 7.498535-3.099394 10.49795c0 0-9.398164 7.598516-16.296817 0.999804 0 0-0.499902-1.499707 3.599297-3.799258 0 0 7.098614-7.898457 9.098223-9.498144 0.09998 0.09998 2.999414-1.799649 6.698691 1.799648" fill="#016766" p-id="4330"></path><path d="M818.240187 190.762742s-11.997657 0.499902-2.899433 7.998437c0 0 3.399336 3.999219-2.299551 6.598712 0 0-6.098809 4.999024-9.098223-1.099786 0 0-2.899434-6.39875-5.998828-4.39914 0 0-4.399141 3.799258 0 5.998828 0 0 2.999414 1.599688 0.09998 4.399141 0 0-4.399141 6.498731-10.59793 2.299551 0 0-24.395235 3.499317-17.896505 7.798477 0 0 2.09959 1.799649 5.099004-0.899825 0 0 4.899043-1.899629 5.099005 2.999414 0 0-0.799844 6.29877-4.0992 9.898067 0 0-8.598321 7.798477-12.097637-0.799844 0 0 1.599688-6.998633-2.599492-6.598711 0 0-15.796915 2.09959-5.298965-7.098613 0 0 4.999024-5.298965 12.897481-5.898848 0 0 15.896895-3.599297 13.297402-6.39875 0 0 0.399922-0.899824-2.099589-2.499512 0 0-0.399922-2.599492 1.799648-2.899434 0 0 2.299551-3.999219-5.099004-3.499316 0 0-4.499121-1.599688-3.799258-2.499512 0 0-5.298965-1.999609-9.098223 1.999609 0 0-7.798477 0.999805-11.397774 4.399141 0 0-5.598906 1.999609-8.098418 4.099199 0 0-5.598906-0.799844-6.598711 0.599883l-10.098028 6.598711s-3.399336 0.999805-5.099004-1.599687c0 0-4.799063-3.999219-0.999805-8.998243 0 0 6.598711-6.498731 9.798086-7.098613 0 0 4.399141-1.399727 6.098809 0.799843 0 0 4.099199 1.099785 9.498145-0.999804 0 0 13.697325-3.299356 17.096661-3.099395 0 0 4.29916-0.999805 7.898457-3.399336 0 0 10.997852-3.599297 14.097247-1.299746 0 0 10.797891 6.498731 15.796915 2.599492 0 0 14.997071-4.599102 19.796133-11.797696 0 0 3.099395-4.099199 8.39836-0.899824 0 0 3.299356 3.999219-0.899824 8.598321 0 0-3.299356 3.599297-5.798868 5.298965 0-0.09998-2.299551 0.399922-4.799063 0.799844M880.628002 305.940246s1.999609 10.297989 11.997657 10.49795c0 0 25.794962 0 34.993165-7.998438 0 0 5.798867 7.998438-3.499316 15.796915 0 0-11.597735 0-15.696934-4.299161 0 0-10.297989 2.799453-7.598516 6.498731 0 0 3.299356 7.498535 1.999609 10.49795 0 0-3.499317 6.798672-7.998438 0 0 0-4.799063-3.999219-4.799062-7.798477 0 0-3.799258-6.798672-10.997852-3.799258 0 0-12.997461 2.499512-14.997071 23.995313 0 0-2.299551 8.298379 0 14.497169 0 0 2.999414 6.798672-3.499317 1.999609 0 0-8.998243-6.998633-6.998633-16.496778 0 0 6.29877-13.297403 8.998243-16.99668 0 0 5.998828-5.498926-5.498926-3.499317 0 0-5.498926 0.999805-13.497364-3.299355 0 0-5.998828-6.29877-8.49834-14.79711 0 0-1.299746-7.798477 3.299355-2.499512 0 0 10.198008 16.99668 27.994533 11.997657 0 0 9.798086-0.299941 5.298965-6.29877 0 0-2.999414-2.999414 1.499707-4.799063 0 0.299941 4.499121-3.699277 7.498535-3.199375M980.308533 475.607108s-10.198008-1.799649-15.297012-4.799063c0 0-8.298379-0.299941-1.199765-3.799258 0 0 26.494825 3.299356 18.496387-5.998828 0 0-28.194493 1.299746-40.292131 4.999024 0 0-9.998047 1.799649-7.498535-5.998829 0 0 4.999024-1.799649 9.698106 0 0 0 11.297793 2.499512 4.29916-2.699472 0 0-7.998438-1.299746 1.199766-3.699278 0 0 10.797891 0.499902 14.697129 2.699473 0 0 8.998243 3.699277 9.298184-2.699473 0 0 4.19918-4.799063 0.699864-6.29877 0 0-21.695763 1.199766-29.194298 2.199571 0 0-11.197813 2.799453-13.997267 5.298965 0 0-2.499512 2.999414-5.498926-1.799649 0 0-8.798282-5.498926-10.69791-12.997461 0 0-2.599492-4.799063-6.598711-2.999414 0 0-4.799063 2.499512-1.899629 6.49873 0 0 14.197227 10.297989 18.196446 16.696739 0 0 3.299356 3.699277-1.99961 2.699473 0 0-5.698887 0.299941-1.699668 5.498926 0 0 6.198789 5.498926-0.799844 5.498926 0 0-4.599102 1.699668-8.298379 5.998828 0 0-4.499121 1.499707-5.498926-5.298965 0 0-5.198985-4.699082-6.29877-11.297793 0 0-8.49834-6.198789-5.998828 2.999414 0 0 2.299551 8.198399 6.198789 9.698106 0 0 1.499707 4.699082-1.799648 4.499121 0 0-10.49795 0.999805-12.197618-0.199961 0 0-3.899238 0-3.999219-6.498731 0 0-2.299551-11.697715-6.798672-3.699277 0 0-0.699863 8.298379 1.799649 10.797891 0 0 4.29916 4.499121 8.298379 3.999219l17.796524-0.199961s2.699473 3.699277-0.199961 5.698887c0 0-2.19957 17.696544 8.798282 6.198789 0 0 1.999609-3.199375 0-7.998438 0 0-1.499707-2.299551 3.199375-3.299355 0 0 6.198789-2.299551 8.49834-5.798868 0 0 2.999414-2.799453 4.799063 0.799844 0 0 11.697715 7.498535 6.198789-5.998828 0 0-1.499707-9.798086 5.698887 5.298965 0 0 9.698106 16.99668-3.499317 6.29877 0 0-3.499317 0.999805 2.499512 6.698691 0 0 4.19918 2.499512 3.799258 5.298965 0 0 1.799649 6.698692 6.498731 0.499903 0 0 4.19918-3.199375 2.999414-6.19879 0 0-6.498731-7.298574-1.299746-7.798476 0 0 4.799063-3.199375 6.29877-7.198594 0 0 7.698496-2.499512 9.698106 1.199765 0 0 11.297793 9.998047 14.99707 6.498731-0.09998-0.199961 10.098028-8.198399-2.09959-9.298184m-33.593438-2.499512s3.799258-4.799063 6.49873 0c0 0-4.499121 3.999219-6.49873 0" fill="#016766" p-id="4331"></path></svg>